g Coin
v 0.0001762628 1.428397 0.1120725
v -0.1553118 1.403756 -0.1119331
v -0.0001762628 1.428403 -0.1120608
v -0.1549653 1.403756 0.112194
v -0.2949544 1.332504 0.1123096
v -0.295307 1.33251 -0.1118237
v -0.4059817 1.221379 0.1123947
v -0.4063282 1.221385 -0.1117325
v -0.4777085 1.081457 -0.1116778
v -0.477356 1.081451 0.1124555
v -0.5018626 0.9262851 0.1124737
v -0.502209 0.9262972 -0.1116596
v -0.4777085 0.7711313 -0.1116839
v -0.477356 0.7711253 0.1124494
v -0.4059817 0.6311969 0.1123887
v -0.4063282 0.6312029 -0.1117385
v -0.295307 0.5200784 -0.1118297
v -0.2949544 0.5200723 0.1122975
v -0.1549653 0.4488257 0.112182
v -0.1553118 0.4488257 -0.1119451
v -0.0001762628 0.4241854 -0.1120728
v 0.0001762628 0.4241794 0.1120605
v 0.1553118 0.4488257 0.1119329
v -0.0001762628 0.4241854 -0.1120728
v 0.0001762628 0.4241794 0.1120605
v 0.1549653 0.4488257 -0.1121944
v 0.2949544 0.5200784 -0.1123099
v 0.295307 0.5200723 0.1118234
v 0.4063282 0.6311969 0.1117323
v 0.4059817 0.6312029 -0.112395
v 0.477356 0.7711313 -0.1124558
v 0.4777085 0.7711253 0.1116775
v 0.502209 0.9262851 0.1116593
v 0.5018626 0.9262972 -0.112474
v 0.477356 1.081457 -0.1124497
v 0.4777085 1.081451 0.1116835
v 0.4063282 1.221379 0.1117382
v 0.4059817 1.221385 -0.112389
v 0.2949544 1.33251 -0.1122978
v 0.295307 1.332504 0.1118294
v 0.1553118 1.403756 0.1119448
v 0.1549653 1.403756 -0.1121884
v -0.0001762628 1.428403 -0.1120608
v 0.0001762628 1.428397 0.1120725
v 0.0001762628 0.9262851 0.1120847
v 0.295307 0.5200723 0.1118234
v 0.1553118 0.4488257 0.1119329
v 0.4063282 0.6311969 0.1117323
v 0.0001762628 0.4241794 0.1120605
v 0.4777085 0.7711253 0.1116775
v -0.1549653 0.4488257 0.112182
v 0.502209 0.9262851 0.1116593
v -0.2949544 0.5200723 0.1122975
v 0.4777085 1.081451 0.1116835
v -0.4059817 0.6311969 0.1123887
v 0.4063282 1.221379 0.1117382
v -0.477356 0.7711253 0.1124494
v 0.295307 1.332504 0.1118294
v -0.5018626 0.9262851 0.1124737
v 0.1553118 1.403756 0.1119448
v -0.477356 1.081451 0.1124555
v 0.0001762628 1.428397 0.1120725
v -0.4059817 1.221379 0.1123947
v -0.1549653 1.403756 0.112194
v -0.2949544 1.332504 0.1123096
v 0.4059817 0.6312029 -0.112395
v -0.0001762628 0.9262972 -0.1120668
v 0.2949544 0.5200784 -0.1123099
v 0.477356 0.7711313 -0.1124558
v 0.1549653 0.4488257 -0.1121944
v 0.5018626 0.9262972 -0.112474
v -0.0001762628 0.4241854 -0.1120728
v 0.477356 1.081457 -0.1124497
v -0.1553118 0.4488257 -0.1119451
v 0.4059817 1.221385 -0.112389
v -0.295307 0.5200784 -0.1118297
v 0.2949544 1.33251 -0.1122978
v -0.4063282 0.6312029 -0.1117385
v 0.1549653 1.403756 -0.1121884
v -0.4777085 0.7711313 -0.1116839
v -0.0001762628 1.428403 -0.1120608
v -0.502209 0.9262972 -0.1116596
v -0.1553118 1.403756 -0.1119331
v -0.4777085 1.081457 -0.1116778
v -0.295307 1.33251 -0.1118237
v -0.4063282 1.221385 -0.1117325
vt 0.984375 0.659668
vt 0.887207 0.7978516
vt 0.984375 0.7978516
vt 0.887207 0.659668
vt 0.7905273 0.659668
vt 0.7905273 0.7978516
vt 0.6938477 0.659668
vt 0.6938477 0.7978516
vt 0.5966797 0.7978516
vt 0.5966797 0.659668
vt 0.5 0.659668
vt 0.5 0.7978516
vt 0.4030762 0.7978516
vt 0.4030762 0.659668
vt 0.3061523 0.659668
vt 0.3061523 0.7978516
vt 0.2093506 0.7978516
vt 0.2093506 0.659668
vt 0.1124878 0.659668
vt 0.1124878 0.7978516
vt 0.015625 0.7978516
vt 0.015625 0.659668
vt 0.1124878 0.7978516
vt 0.015625 0.659668
vt 0.015625 0.7978516
vt 0.1124878 0.659668
vt 0.2093506 0.659668
vt 0.2093506 0.7978516
vt 0.3061523 0.7978516
vt 0.3061523 0.659668
vt 0.4030762 0.659668
vt 0.4030762 0.7978516
vt 0.5 0.7978516
vt 0.5 0.659668
vt 0.5966797 0.659668
vt 0.5966797 0.7978516
vt 0.6938477 0.7978516
vt 0.6938477 0.659668
vt 0.7905273 0.659668
vt 0.7905273 0.7978516
vt 0.887207 0.7978516
vt 0.887207 0.659668
vt 0.984375 0.659668
vt 0.984375 0.7978516
vt 0.3215332 0.3215332
vt 0.5048828 0.07202148
vt 0.4187012 0.02749634
vt 0.5727539 0.1408691
vt 0.3232422 0.01184845
vt 0.6162109 0.227417
vt 0.227417 0.02639771
vt 0.6308594 0.3232422
vt 0.1408691 0.06994629
vt 0.6152344 0.4187012
vt 0.07202148 0.1379395
vt 0.5708008 0.5048828
vt 0.02757263 0.2241211
vt 0.5019531 0.5727539
vt 0.01182556 0.3195801
vt 0.4155273 0.6162109
vt 0.026474 0.4152832
vt 0.3195801 0.6308594
vt 0.06994629 0.5019531
vt 0.2241211 0.6152344
vt 0.1380615 0.5708008
vt 0.07202148 0.1380615
vt 0.3215332 0.3215332
vt 0.1408691 0.06988525
vt 0.02752686 0.223999
vt 0.227417 0.02644348
vt 0.01187134 0.3195801
vt 0.3232422 0.01180267
vt 0.02644348 0.4155273
vt 0.4187012 0.02754211
vt 0.06994629 0.5019531
vt 0.5048828 0.07196045
vt 0.1380615 0.5708008
vt 0.5727539 0.1408691
vt 0.2241211 0.6152344
vt 0.6166992 0.227417
vt 0.3195801 0.6308594
vt 0.6308594 0.3232422
vt 0.4155273 0.6162109
vt 0.6152344 0.4187012
vt 0.5019531 0.5727539
vt 0.5708008 0.5048828
vn 7.665157E-05 1 1.347065E-05
vn -0.309082 0.9511719 0.000494957
vn -7.510185E-05 1 1.370907E-05
vn -0.3088379 0.9511719 0.000494957
vn -0.5878906 0.809082 0.0009326935
vn -0.5878906 0.809082 0.0009326935
vn -0.809082 0.5878906 0.001277924
vn -0.809082 0.5878906 0.001277924
vn -0.9511719 0.309082 0.0014925
vn -0.9511719 0.309082 0.0014925
vn -1 0 0.001559258
vn -1 0 0.001559258
vn -0.9511719 -0.309082 0.001473427
vn -0.9511719 -0.309082 0.001473427
vn -0.809082 -0.5878906 0.001245499
vn -0.809082 -0.5878906 0.001245499
vn -0.5878906 -0.809082 0.0009007454
vn -0.5878906 -0.809082 0.0009007454
vn -0.3088379 -0.9511719 0.0004689693
vn -0.309082 -0.9511719 0.0004692078
vn -7.688999E-05 -1 -1.323223E-05
vn 7.688999E-05 -1 -1.347065E-05
vn 0.309082 -0.9511719 -0.0004944801
vn -7.688999E-05 -1 -1.323223E-05
vn 7.688999E-05 -1 -1.347065E-05
vn 0.3088379 -0.9511719 -0.0004944801
vn 0.5878906 -0.809082 -0.0009322166
vn 0.5878906 -0.809082 -0.0009322166
vn 0.809082 -0.5878906 -0.00127697
vn 0.809082 -0.5878906 -0.00127697
vn 0.9511719 -0.309082 -0.0014925
vn 0.9511719 -0.309082 -0.0014925
vn 1 0 -0.001559258
vn 1 0 -0.001559258
vn 0.9511719 0.309082 -0.001473427
vn 0.9511719 0.309082 -0.001473427
vn 0.809082 0.5878906 -0.001245499
vn 0.809082 0.5878906 -0.001245499
vn 0.5878906 0.809082 -0.0009002686
vn 0.5878906 0.809082 -0.0009007454
vn 0.309082 0.9511719 -0.0004689693
vn 0.3088379 0.9511719 -0.0004687309
vn -7.510185E-05 1 1.370907E-05
vn 7.665157E-05 1 1.347065E-05
vn 0.0008087158 -1.198053E-05 1
vn 0.000828743 -4.094839E-05 1
vn 0.0008201599 -5.161762E-05 1
vn 0.0008444786 -3.230572E-05 1
vn 0.0008029938 -4.827976E-05 1
vn 0.0008440018 -2.69413E-05 1
vn 0.0007863045 -5.167723E-05 1
vn 0.0008473396 -1.943111E-05 1
vn 0.000787735 -4.851818E-05 1
vn 0.0008382797 0 1
vn 0.0007777214 -4.017353E-05 1
vn 0.000834465 2.551079E-05 1
vn 0.0007753372 -3.618002E-05 1
vn 0.0008378029 2.002716E-05 1
vn 0.0007748604 -1.943111E-05 1
vn 0.0008311272 2.288818E-05 1
vn 0.0007810593 1.40667E-05 1
vn 0.0008029938 2.43783E-05 1
vn 0.0007758141 1.752377E-05 1
vn 0.0007939339 2.890825E-05 1
vn 0.0007863045 1.776218E-05 1
vn -0.000805378 0 -1
vn -0.0008091927 1.078844E-05 -1
vn -0.0008077621 1.162291E-05 -1
vn -0.0008153915 0 -1
vn -0.0008049011 0 -1
vn -0.0008111 1.943111E-05 -1
vn -0.0008029938 1.192093E-05 -1
vn -0.0008101463 2.497435E-05 -1
vn -0.0008201599 1.162291E-05 -1
vn -0.0008068085 1.883507E-05 -1
vn -0.0008163452 0 -1
vn -0.000793457 0 -1
vn -0.000805378 0 -1
vn -0.0008010864 0 -1
vn -0.0008039474 0 -1
vn -0.0008225441 1.198053E-05 -1
vn -0.0008111 1.943111E-05 -1
vn -0.0008087158 1.716614E-05 -1
vn -0.0008096695 1.567602E-05 -1
vn -0.0008077621 1.162291E-05 -1
vn -0.0008149147 1.090765E-05 -1
g Coin_0
f 3/3/3 2/2/2 1/1/1
f 2/2/2 4/4/4 1/1/1
f 5/5/5 4/4/4 2/2/2
f 6/6/6 5/5/5 2/2/2
f 5/5/5 6/6/6 7/7/7
f 6/6/6 8/8/8 7/7/7
f 8/8/8 9/9/9 7/7/7
f 9/9/9 10/10/10 7/7/7
f 10/10/10 9/9/9 11/11/11
f 9/9/9 12/12/12 11/11/11
f 12/12/12 13/13/13 11/11/11
f 13/13/13 14/14/14 11/11/11
f 14/14/14 13/13/13 15/15/15
f 13/13/13 16/16/16 15/15/15
f 16/16/16 17/17/17 15/15/15
f 17/17/17 18/18/18 15/15/15
f 18/18/18 17/17/17 19/19/19
f 17/17/17 20/20/20 19/19/19
f 20/20/20 21/21/21 19/19/19
f 21/21/21 22/22/22 19/19/19
f 25/25/25 24/24/24 23/23/23
f 24/24/24 26/26/26 23/23/23
f 26/26/26 27/27/27 23/23/23
f 27/27/27 28/28/28 23/23/23
f 28/28/28 27/27/27 29/29/29
f 27/27/27 30/30/30 29/29/29
f 30/30/30 31/31/31 29/29/29
f 31/31/31 32/32/32 29/29/29
f 32/32/32 31/31/31 33/33/33
f 31/31/31 34/34/34 33/33/33
f 34/34/34 35/35/35 33/33/33
f 35/35/35 36/36/36 33/33/33
f 36/36/36 35/35/35 37/37/37
f 35/35/35 38/38/38 37/37/37
f 38/38/38 39/39/39 37/37/37
f 39/39/39 40/40/40 37/37/37
f 40/40/40 39/39/39 41/41/41
f 39/39/39 42/42/42 41/41/41
f 42/42/42 43/43/43 41/41/41
f 43/43/43 44/44/44 41/41/41
f 47/47/47 46/46/46 45/45/45
f 46/46/46 48/48/48 45/45/45
f 49/49/49 47/47/47 45/45/45
f 48/48/48 50/50/50 45/45/45
f 51/51/51 49/49/49 45/45/45
f 50/50/50 52/52/52 45/45/45
f 53/53/53 51/51/51 45/45/45
f 52/52/52 54/54/54 45/45/45
f 55/55/55 53/53/53 45/45/45
f 54/54/54 56/56/56 45/45/45
f 57/57/57 55/55/55 45/45/45
f 56/56/56 58/58/58 45/45/45
f 59/59/59 57/57/57 45/45/45
f 58/58/58 60/60/60 45/45/45
f 61/61/61 59/59/59 45/45/45
f 60/60/60 62/62/62 45/45/45
f 63/63/63 61/61/61 45/45/45
f 45/45/45 62/62/62 64/64/64
f 65/65/65 63/63/63 45/45/45
f 65/65/65 45/45/45 64/64/64
f 68/68/68 67/67/67 66/66/66
f 67/67/67 69/69/69 66/66/66
f 67/67/67 68/68/68 70/70/70
f 69/69/69 67/67/67 71/71/71
f 72/72/72 67/67/67 70/70/70
f 67/67/67 73/73/73 71/71/71
f 67/67/67 72/72/72 74/74/74
f 73/73/73 67/67/67 75/75/75
f 76/76/76 67/67/67 74/74/74
f 67/67/67 77/77/77 75/75/75
f 67/67/67 76/76/76 78/78/78
f 77/77/77 67/67/67 79/79/79
f 80/80/80 67/67/67 78/78/78
f 67/67/67 81/81/81 79/79/79
f 67/67/67 80/80/80 82/82/82
f 83/83/83 81/81/81 67/67/67
f 84/84/84 67/67/67 82/82/82
f 85/85/85 83/83/83 67/67/67
f 67/67/67 84/84/84 86/86/86
f 85/85/85 67/67/67 86/86/86
