g Combined Mesh (root: scene) 6
v -1.82 0.02000043 -15.375
v -4.52 0.02000043 -15.375
v -1.82 0.01999957 -8.185
v -4.52 0.01999957 -8.185
v 2.15 0.02000074 -30.46
v -2.15 0.02000074 -30.46
v 2.15 0.01999926 -18.06
v -2.15 0.01999926 -18.06
vt 0 0
vt 1 0
vt 0 1
vt 1 1
vt 0 0
vt 1 0
vt 0 1
vt 1 1
vn 0 1 1.192093E-07
vn 0 1 1.192093E-07
vn 0 1 1.192093E-07
vn 0 1 1.192093E-07
vn 0 1 1.192093E-07
vn 0 1 1.192093E-07
vn 0 1 1.192093E-07
vn 0 1 1.192093E-07
g Combined Mesh (root: scene) 6_0
f 2/2/2 4/4/4 1/1/1
f 3/3/3 1/1/1 4/4/4
g Combined Mesh (root: scene) 6_1
f 6/6/6 8/8/8 5/5/5
f 7/7/7 5/5/5 8/8/8
