g Electrical box
v -0.3617622 0.6847813 -0.1492419
v 0.3617622 0.6847813 -0.149242
v 0.3617622 1.571038 -0.149242
v -0.3617622 1.571038 -0.1492419
v 0.3617622 0.6847813 -0.149242
v 0.3617622 0.6847813 0.1492419
v 0.3617622 1.571038 0.1492419
v 0.3617622 1.571038 -0.149242
v 0.3617622 0.6847813 0.1492419
v -0.3617622 0.6847813 0.149242
v -0.3617622 1.571038 0.149242
v 0.3617622 1.571038 0.1492419
v -0.3617622 0.6847813 0.149242
v -0.3617622 0.6847813 -0.1492419
v -0.3617622 1.571038 -0.1492419
v -0.3617622 1.571038 0.149242
v -0.3809043 1.545722 -0.1694172
v 0.3809043 1.545722 -0.1694172
v 0.3809043 1.614874 -0.1694172
v -0.3809043 1.614874 -0.1694172
v 0.3809043 1.545722 -1.664985E-08
v 0.3809043 1.545722 0.1694172
v 0.3809043 1.614874 0.1694172
v 0.3809043 1.6542 -1.664985E-08
v 0.3809043 1.545722 -0.1694172
v 0.3809043 1.614874 -0.1694172
v 0.3809043 1.545722 0.1694172
v -0.3809043 1.545722 0.1694172
v -0.3809043 1.614874 0.1694172
v 0.3809043 1.614874 0.1694172
v -0.3809043 1.545722 1.664985E-08
v -0.3809043 1.545722 -0.1694172
v -0.3809043 1.614874 -0.1694172
v -0.3809043 1.6542 1.664985E-08
v -0.3809043 1.545722 0.1694172
v -0.3809043 1.614874 0.1694172
v 0.3809043 1.545722 -1.664985E-08
v -0.3809043 1.545722 1.664985E-08
v -0.3809043 1.545722 0.1694172
v 0.3809043 1.545722 0.1694172
v 0.3809043 1.6542 -1.664985E-08
v -0.3809043 1.6542 1.664985E-08
v -0.3809043 1.614874 -0.1694172
v 0.3809043 1.614874 -0.1694172
v 0.3809043 1.614874 0.1694172
v -0.3809043 1.614874 0.1694172
v -0.3809043 1.6542 1.664985E-08
v 0.3809043 1.6542 -1.664985E-08
v 0.3809043 1.545722 -0.1694172
v -0.3809043 1.545722 -0.1694172
v -0.3809043 1.545722 1.664985E-08
v 0.3809043 1.545722 -1.664985E-08
v -0.3989784 0.001607579 -0.1878901
v 0.3989784 0.001607579 -0.1878901
v 0.3989784 0.6794677 -0.1878901
v -0.3989784 0.6794677 -0.1878901
v 0.3989784 0.001607579 -0.1878901
v 0.3989784 0.001607579 0.1878901
v 0.3989784 0.6794677 0.1878901
v 0.3989784 0.6794677 -0.1878901
v 0.3989784 0.001607579 0.1878901
v -0.3989784 0.001607579 0.1878901
v -0.3989784 0.6794677 0.1878901
v 0.3989784 0.6794677 0.1878901
v -0.3989784 0.001607579 0.1878901
v -0.3989784 0.001607579 -0.1878901
v -0.3989784 0.6794677 -0.1878901
v -0.3989784 0.6794677 0.1878901
v 0.3989784 0.6794677 0.1878901
v -0.3989784 0.6794677 0.1878901
v -0.3989784 0.6794677 -0.1878901
v 0.3989784 0.6794677 -0.1878901
vt 0.7441406 0.5644531
vt 0.9604492 0.5644531
vt 0.9604492 0.2998047
vt 0.7441406 0.2998047
vt 0.2724609 0.3710938
vt 0.2724609 0.2817383
vt 0.007820129 0.2817383
vt 0.007820129 0.3710938
vt 0.7441406 0.5644531
vt 0.9604492 0.5644531
vt 0.9604492 0.2998047
vt 0.7441406 0.2998047
vt 0.2724609 0.3710938
vt 0.2724609 0.2817383
vt 0.007820129 0.2817383
vt 0.007820129 0.3710938
vt 0.9790039 0.4597168
vt 0.9790039 0.4914551
vt 0.9760742 0.4914551
vt 0.9760742 0.4597168
vt 0.3522949 0.3044434
vt 0.3522949 0.3269043
vt 0.3615723 0.3269043
vt 0.3666992 0.3044434
vt 0.3522949 0.2817383
vt 0.3615723 0.2817383
vt 0.9790039 0.4597168
vt 0.9790039 0.4914551
vt 0.9760742 0.4914551
vt 0.9760742 0.4597168
vt 0.3522949 0.3044434
vt 0.3522949 0.3269043
vt 0.3615723 0.3269043
vt 0.3666992 0.3044434
vt 0.3522949 0.2817383
vt 0.3615723 0.2817383
vt 0.9760742 0.4116211
vt 0.9760742 0.3798828
vt 0.9829102 0.3798828
vt 0.9829102 0.4116211
vt 0.9833984 0.2998047
vt 0.9833984 0.3320313
vt 0.9902344 0.3320313
vt 0.9902344 0.2998047
vt 0.9760742 0.2998047
vt 0.9760742 0.3320313
vt 0.9833984 0.3320313
vt 0.9833984 0.2998047
vt 0.9760742 0.4116211
vt 0.9760742 0.3798828
vt 0.9829102 0.3798828
vt 0.9829102 0.4116211
vt 0.6625977 0.3483887
vt 0.7197266 0.3483887
vt 0.7197266 0.2998047
vt 0.6625977 0.2998047
vt 0.3366699 0.3088379
vt 0.3366699 0.2817383
vt 0.2880859 0.2817383
vt 0.2880859 0.3088379
vt 0.6625977 0.3483887
vt 0.7197266 0.3483887
vt 0.7197266 0.2998047
vt 0.6625977 0.2998047
vt 0.3366699 0.3088379
vt 0.3366699 0.2817383
vt 0.2880859 0.2817383
vt 0.2880859 0.3088379
vt 0.3662109 0.359375
vt 0.3327637 0.359375
vt 0.3327637 0.34375
vt 0.3662109 0.34375
vn 0 0 -1
vn 0 0 -1
vn 0 0 -1
vn 0 0 -1
vn 1 0 0
vn 1 0 0
vn 1 0 0
vn 1 0 0
vn 0 0 1
vn 0 0 1
vn 0 0 1
vn 0 0 1
vn -1 0 0
vn -1 0 0
vn -1 0 0
vn -1 0 0
vn 0 0 -1
vn 0 0 -1
vn 0 0 -1
vn 0 0 -1
vn 1 0 0
vn 1 0 0
vn 1 0 0
vn 1 0 0
vn 1 0 0
vn 1 0 0
vn 0 0 1
vn 0 0 1
vn 0 0 1
vn 0 0 1
vn -1 0 0
vn -1 0 0
vn -1 0 0
vn -1 0 0
vn -1 0 0
vn -1 0 0
vn 0 -1 0
vn 0 -1 0
vn 0 -1 0
vn 0 -1 0
vn 0 0.9741211 -0.2260742
vn 0 0.9741211 -0.2260742
vn 0 0.9741211 -0.2260742
vn 0 0.9741211 -0.2260742
vn 0 0.9741211 0.2260742
vn 0 0.9741211 0.2260742
vn 0 0.9741211 0.2260742
vn 0 0.9741211 0.2260742
vn 0 -1 0
vn 0 -1 0
vn 0 -1 0
vn 0 -1 0
vn 0 0 -1
vn 0 0 -1
vn 0 0 -1
vn 0 0 -1
vn 1 0 0
vn 1 0 0
vn 1 0 0
vn 1 0 0
vn 0 0 1
vn 0 0 1
vn 0 0 1
vn 0 0 1
vn -1 0 0
vn -1 0 0
vn -1 0 0
vn -1 0 0
vn 0 1 0
vn 0 1 0
vn 0 1 0
vn 0 1 0
g Electrical box_0
f 3/3/3 2/2/2 1/1/1
f 4/4/4 3/3/3 1/1/1
f 7/7/7 6/6/6 5/5/5
f 8/8/8 7/7/7 5/5/5
f 11/11/11 10/10/10 9/9/9
f 12/12/12 11/11/11 9/9/9
f 15/15/15 14/14/14 13/13/13
f 16/16/16 15/15/15 13/13/13
f 19/19/19 18/18/18 17/17/17
f 20/20/20 19/19/19 17/17/17
f 23/23/23 22/22/22 21/21/21
f 24/24/24 23/23/23 21/21/21
f 24/24/24 21/21/21 25/25/25
f 26/26/26 24/24/24 25/25/25
f 29/29/29 28/28/28 27/27/27
f 30/30/30 29/29/29 27/27/27
f 33/33/33 32/32/32 31/31/31
f 34/34/34 33/33/33 31/31/31
f 34/34/34 31/31/31 35/35/35
f 36/36/36 34/34/34 35/35/35
f 39/39/39 38/38/38 37/37/37
f 40/40/40 39/39/39 37/37/37
f 43/43/43 42/42/42 41/41/41
f 44/44/44 43/43/43 41/41/41
f 47/47/47 46/46/46 45/45/45
f 48/48/48 47/47/47 45/45/45
f 51/51/51 50/50/50 49/49/49
f 52/52/52 51/51/51 49/49/49
f 55/55/55 54/54/54 53/53/53
f 56/56/56 55/55/55 53/53/53
f 59/59/59 58/58/58 57/57/57
f 60/60/60 59/59/59 57/57/57
f 63/63/63 62/62/62 61/61/61
f 64/64/64 63/63/63 61/61/61
f 67/67/67 66/66/66 65/65/65
f 68/68/68 67/67/67 65/65/65
f 71/71/71 70/70/70 69/69/69
f 72/72/72 71/71/71 69/69/69
