g Glass
v 0.03875959 -0.009976715 0.005221268
v 0.02870924 -0.02075428 0.003867394
v 0.009349048 -0.02993015 0.0012594
v 0.009349048 -0.009976715 0.001259401
v 0.03875959 0.009976715 0.005221269
v -0.01291986 -0.02993015 -0.001740424
v 0.009349048 0.009976715 0.001259402
v 0.03471701 0.02443325 0.004676698
v 0.009349048 0.02993015 0.001259403
v -0.01291986 -0.009976715 -0.001740423
v -0.03244306 -0.02475659 -0.004370376
v -0.03875959 -0.009976715 -0.005221269
v -0.01291986 0.009976715 -0.001740422
v -0.01291986 0.02993015 -0.001740421
v -0.03875959 0.009976715 -0.005221268
v -0.03421169 0.02443325 -0.004608624
v 0.06522229 -0.009976716 0.005221259
v 0.09463283 -0.02993015 0.001259392
v 0.07527263 -0.02075428 0.003867385
v 0.09463283 -0.009976716 0.001259393
v 0.06522229 0.009976716 0.005221259
v 0.1169017 -0.02993015 -0.001740434
v 0.09463283 0.009976716 0.001259393
v 0.06926487 0.02443325 0.004676689
v 0.09463283 0.02993015 0.001259394
v 0.1169017 -0.009976716 -0.001740434
v 0.1364249 -0.0247566 -0.004370388
v 0.1427415 -0.009976716 -0.005221276
v 0.1169017 0.009976716 -0.001740432
v 0.1169017 0.02993015 -0.001740432
v 0.1427415 0.009976716 -0.005221276
v 0.1381936 0.02443325 -0.004608635
vt 0.9658203 0.02581787
vt 0.9790039 0.03845215
vt 0.9907227 0.06286621
vt 0.9658203 0.06286621
vt 0.940918 0.02581787
vt 0.9907227 0.09088135
vt 0.940918 0.06286621
vt 0.9228516 0.03089905
vt 0.9160156 0.06286621
vt 0.9658203 0.09088135
vt 0.984375 0.1154785
vt 0.9658203 0.1234741
vt 0.940918 0.09088135
vt 0.9160156 0.09088135
vt 0.940918 0.1234741
vt 0.9228516 0.1177368
vt 0.9658203 0.1234741
vt 0.9907227 0.08642578
vt 0.9790039 0.1108398
vt 0.9658203 0.08642578
vt 0.940918 0.1234741
vt 0.9907227 0.05838013
vt 0.940918 0.08642578
vt 0.9228516 0.1183472
vt 0.9160156 0.08642578
vt 0.9658203 0.05838013
vt 0.984375 0.03378296
vt 0.9658203 0.02581787
vt 0.940918 0.05838013
vt 0.9160156 0.05838013
vt 0.940918 0.02581787
vt 0.9228516 0.03155518
vn -0.1335032 0 0.9910484
vn -0.1335032 0 0.9910484
vn -0.1335032 0 0.9910484
vn -0.1335032 0 0.9910484
vn -0.1335032 0 0.9910484
vn -0.1335032 0 0.9910484
vn -0.1335032 0 0.9910484
vn -0.1335032 0 0.9910484
vn -0.1335032 0 0.9910484
vn -0.1335032 0 0.9910484
vn -0.1335032 0 0.9910484
vn -0.1335032 0 0.9910484
vn -0.1335032 0 0.9910484
vn -0.1335032 0 0.9910484
vn -0.1335032 0 0.9910484
vn -0.1335032 0 0.9910484
vn 0.1335032 0 0.9910484
vn 0.1335032 0 0.9910484
vn 0.1335032 0 0.9910484
vn 0.1335032 0 0.9910484
vn 0.1335032 0 0.9910484
vn 0.1335031 0 0.9910484
vn 0.1335033 0 0.9910484
vn 0.1335032 0 0.9910484
vn 0.1335033 0 0.9910484
vn 0.1335031 0 0.9910484
vn 0.1335031 0 0.9910484
vn 0.1335031 0 0.9910484
vn 0.1335033 0 0.9910484
vn 0.1335033 0 0.9910484
vn 0.1335031 0 0.9910484
vn 0.1335031 0 0.9910484
g Glass_0
f 3/3/3 2/2/2 1/1/1
f 4/4/4 3/3/3 1/1/1
f 4/4/4 1/1/1 5/5/5
f 6/6/6 3/3/3 4/4/4
f 7/7/7 4/4/4 5/5/5
f 7/7/7 5/5/5 8/8/8
f 9/9/9 7/7/7 8/8/8
f 10/10/10 6/6/6 4/4/4
f 10/10/10 4/4/4 7/7/7
f 11/11/11 6/6/6 10/10/10
f 12/12/12 11/11/11 10/10/10
f 13/13/13 7/7/7 9/9/9
f 13/13/13 10/10/10 7/7/7
f 12/12/12 10/10/10 13/13/13
f 14/14/14 13/13/13 9/9/9
f 15/15/15 12/12/12 13/13/13
f 15/15/15 13/13/13 14/14/14
f 16/16/16 15/15/15 14/14/14
f 19/19/19 18/18/18 17/17/17
f 18/18/18 20/20/20 17/17/17
f 17/17/17 20/20/20 21/21/21
f 18/18/18 22/22/22 20/20/20
f 20/20/20 23/23/23 21/21/21
f 21/21/21 23/23/23 24/24/24
f 23/23/23 25/25/25 24/24/24
f 22/22/22 26/26/26 20/20/20
f 20/20/20 26/26/26 23/23/23
f 22/22/22 27/27/27 26/26/26
f 27/27/27 28/28/28 26/26/26
f 23/23/23 29/29/29 25/25/25
f 26/26/26 29/29/29 23/23/23
f 26/26/26 28/28/28 29/29/29
f 29/29/29 30/30/30 25/25/25
f 28/28/28 31/31/31 29/29/29
f 29/29/29 31/31/31 30/30/30
f 31/31/31 32/32/32 30/30/30
