g Helmet
v 0 -0.02647385 0.2032903
v -0.1316071 -0.06854735 0.2066242
v -0.1385098 -0.07148966 0.137464
v 0 -0.03031565 0.234035
v -0.1143962 -0.06018745 0.272239
v 0.1316071 -0.06854735 0.2066242
v 0.1385098 -0.07148966 0.137464
v 0.1143962 -0.06018745 0.272239
v 0 -0.03079221 0.2727024
v -0.08690342 -0.0479112 0.2978003
v 0.08690342 -0.0479112 0.2978003
v 0 -0.02894982 0.3204427
v 0 -0.0312513 0.194464
v -0.1290561 -0.07439553 0.1322372
v -0.1258484 -0.07413691 0.2064231
v -2.471592E-10 -0.03671537 0.2340968
v -0.1092792 -0.06592771 0.2734548
v 0.1258484 -0.07413691 0.2064231
v 0.1290561 -0.07439553 0.1322372
v 0.1092792 -0.06592771 0.2734548
v 3.659709E-10 -0.03712653 0.2745949
v -0.08240325 -0.05368916 0.3004594
v 0.08240325 -0.05368916 0.3004594
v 2.86788E-10 -0.03519745 0.323318
v -0.1385098 -0.07148966 0.137464
v -0.1290561 -0.07439553 0.1322372
v -0.142332 -0.07175168 0.05430637
v -0.1540688 -0.07095717 0.05406605
v -0.1283828 -0.09720191 -0.02619927
v -0.1393407 -0.09707124 -0.0311915
v -0.08845226 -0.1532867 -0.1048011
v -0.09437273 -0.1536286 -0.1162636
v 0 -0.165086 -0.1346552
v 0 -0.1655259 -0.1478889
v 0.08845226 -0.1532867 -0.1048011
v 0.09437273 -0.1536286 -0.1162636
v 0.1283828 -0.09720191 -0.02619927
v 0.1393407 -0.09707124 -0.0311915
v 0.142332 -0.07175168 0.05430637
v 0.1540688 -0.07095717 0.05406605
v 0.1290561 -0.07439553 0.1322372
v 0.1385098 -0.07148966 0.137464
v 0.1290561 -0.07439553 0.1322372
v 0.1258484 -0.07413691 0.2064231
v 0.1316071 -0.06854735 0.2066242
v 0.1092792 -0.06592771 0.2734548
v 0.1143962 -0.06018745 0.272239
v 0.08240325 -0.05368916 0.3004594
v 0.08690342 -0.0479112 0.2978003
v 2.86788E-10 -0.03519745 0.323318
v 0 -0.02894982 0.3204427
v -0.08240325 -0.05368916 0.3004594
v -0.08690342 -0.0479112 0.2978003
v -0.1092792 -0.06592771 0.2734548
v -0.1143962 -0.06018745 0.272239
v -0.1258484 -0.07413691 0.2064231
v -0.1316071 -0.06854735 0.2066242
v -0.1290561 -0.07439553 0.1322372
v -0.1388405 -0.1134372 0.04587555
v -0.1429046 -0.06667098 0.05707248
v -0.1432141 -0.06485251 0.08052849
v -0.1414378 -0.1183781 0.07014887
v -0.1330943 -0.1522216 0.03825351
v -0.1386243 -0.1600481 0.06054959
v -0.1375127 -0.1772365 0.04385131
v -0.1310501 -0.1440922 0.01364446
v -0.1292169 -0.1927432 0.09134381
v -0.1285636 -0.1660179 0.00115154
v -0.1113272 -0.11374 -0.05556633
v -0.102431 -0.1265468 -0.07534491
v -0.127925 -0.2093657 0.07161608
v -0.1086218 -0.2372407 0.09842985
v -0.1083332 -0.2212015 0.1204444
v -0.07186835 -0.2556084 0.1197844
v -0.0717029 -0.2417531 0.1417764
v -0.0001929829 -0.2775364 0.1276555
v -0.0001929829 -0.257919 0.1443216
v 0.07131695 -0.2417531 0.1417764
v 0.07148238 -0.2556084 0.1197843
v 0.1079472 -0.2212015 0.1204444
v 0.1082358 -0.2372407 0.09842984
v 0.128831 -0.1927432 0.0913438
v 0.127539 -0.2093657 0.07161608
v 0.1371267 -0.1772365 0.04385131
v 0.1382383 -0.1600481 0.06054959
v 0.1327083 -0.1522216 0.03825351
v 0.1410518 -0.1183781 0.07014887
v 0.1306641 -0.1440922 0.01364446
v 0.1384546 -0.1134372 0.04587555
v 0.1428282 -0.0648525 0.08052849
v 0.1425186 -0.06667098 0.05707248
v 0.1281776 -0.1660179 0.00115154
v 0.1109412 -0.11374 -0.05556631
v 0.1020451 -0.1265468 -0.07534489
v 0 -0.02647385 0.2032903
v 0 -0.002460504 0.184236
v 0.1277109 -0.03326534 0.1301222
v 0.1385098 -0.07148966 0.137464
v 0.1416351 -0.02570411 0.04666586
v 0.1540688 -0.07095717 0.05406605
v 0.1316707 -0.04014062 -0.04057446
v 0.1393407 -0.09707124 -0.0311915
v 0.09706773 -0.1021162 -0.1236642
v 0.09437273 -0.1536286 -0.1162636
v 0 -0.1066059 -0.1553359
v 0 -0.1655259 -0.1478889
v -0.09437273 -0.1536286 -0.1162636
v -0.09706773 -0.1021162 -0.1236642
v -0.1393407 -0.09707124 -0.0311915
v 0 -0.03943611 -0.1487474
v 0.08832449 -0.02845761 -0.116523
v 0 0.004834792 -0.1269197
v 0.1236976 -0.00637885 -0.04604143
v -0.1316707 -0.04014062 -0.04057446
v -0.1540688 -0.07095717 0.05406605
v -0.08832449 -0.02845761 -0.116523
v -0.1416351 -0.02570411 0.04666586
v -0.1385098 -0.07148966 0.137464
v -0.1236976 -0.00637885 -0.04604143
v -0.1277109 -0.03326534 0.1301222
v 0 -0.02647385 0.2032903
v -0.1247643 0.008057652 0.04119889
v -0.06980138 0.01029956 -0.0970821
v -0.09504028 0.02596593 -0.05106523
v -0.1029812 0.01992338 0.1133528
v -0.09610696 0.04040243 0.0361751
v 0 0.0702981 -0.05623441
v 0 0.02547746 0.161776
v -0.05885975 0.05144789 0.1035929
v 0 0.0847346 0.03100592
v 0.1029812 0.01992338 0.1133528
v 0 0.06031761 0.1237623
v 0.05885975 0.05144789 0.1035929
v 0.09610696 0.04040243 0.0361751
v 0.1247643 0.008057652 0.04119889
v 0.09504028 0.02596593 -0.05106523
v 0.06980138 0.01029956 -0.0970821
vt 0.2380371 0.878418
vt 0.2727051 0.972168
vt 0.322998 0.9624023
vt 0.2165527 0.8881836
vt 0.2276611 0.9741211
vt 0.2727051 0.972168
vt 0.322998 0.9624023
vt 0.2276611 0.9741211
vt 0.1887207 0.9018555
vt 0.2041016 0.9663086
vt 0.2041016 0.9663086
vt 0.1535645 0.9228516
vt 0.6650391 0.007987976
vt 0.7075195 0.1033936
vt 0.6557617 0.100708
vt 0.637207 0.00894165
vt 0.6088867 0.08764648
vt 0.6557617 0.100708
vt 0.7075195 0.1033936
vt 0.6088867 0.08764648
vt 0.6088867 0.008781433
vt 0.5898438 0.06719971
vt 0.5898438 0.06719971
vt 0.574707 0.008041382
vt 0.322998 0.9624023
vt 0.3259277 0.9702148
vt 0.3850098 0.9682617
vt 0.3852539 0.9599609
vt 0.4467773 0.9726563
vt 0.4482422 0.9643555
vt 0.5175781 0.9760742
vt 0.5195313 0.9682617
vt 0.5805664 0.9790039
vt 0.5839844 0.9692383
vt 0.5175781 0.9760742
vt 0.5195313 0.9682617
vt 0.4467773 0.9726563
vt 0.4482422 0.9643555
vt 0.3850098 0.9682617
vt 0.3852539 0.9599609
vt 0.3259277 0.9702148
vt 0.322998 0.9624023
vt 0.3278809 0.9692383
vt 0.2729492 0.9780273
vt 0.2727051 0.972168
vt 0.2254639 0.9790039
vt 0.2276611 0.9741211
vt 0.199707 0.9697266
vt 0.2041016 0.9663086
vt 0.1505127 0.9267578
vt 0.1535645 0.9228516
vt 0.199707 0.9697266
vt 0.2041016 0.9663086
vt 0.2254639 0.9790039
vt 0.2276611 0.9741211
vt 0.2729492 0.9780273
vt 0.2727051 0.972168
vt 0.3278809 0.9692383
vt 0.9526367 0.09509277
vt 0.9536133 0.09533691
vt 0.9536133 0.0958252
vt 0.9526367 0.09564209
vt 0.9516602 0.09490967
vt 0.9516602 0.09545898
vt 0.9511719 0.09509277
vt 0.9521484 0.09436035
vt 0.9511719 0.09619141
vt 0.9516602 0.09405518
vt 0.9526367 0.0927124
vt 0.9521484 0.09222412
vt 0.9506836 0.09576416
vt 0.949707 0.09643555
vt 0.9501953 0.09692383
vt 0.9492188 0.097229
vt 0.9492188 0.09771729
vt 0.9477539 0.0980835
vt 0.9482422 0.09857178
vt 0.9492188 0.09771729
vt 0.9492188 0.097229
vt 0.9501953 0.09692383
vt 0.949707 0.09643555
vt 0.9511719 0.09619141
vt 0.9506836 0.09576416
vt 0.9511719 0.09509277
vt 0.9516602 0.09545898
vt 0.9516602 0.09490967
vt 0.9526367 0.09564209
vt 0.9521484 0.09436035
vt 0.9526367 0.09509277
vt 0.9536133 0.0958252
vt 0.9536133 0.09533691
vt 0.9516602 0.09405518
vt 0.9526367 0.0927124
vt 0.9521484 0.09222412
vt 0.2380371 0.878418
vt 0.2548828 0.8623047
vt 0.329834 0.9331055
vt 0.322998 0.9624023
vt 0.3864746 0.9277344
vt 0.3852539 0.9599609
vt 0.4438477 0.925293
vt 0.4482422 0.9643555
vt 0.5097656 0.9394531
vt 0.5195313 0.9682617
vt 0.5771484 0.9208984
vt 0.5839844 0.9692383
vt 0.5195313 0.9682617
vt 0.5097656 0.9394531
vt 0.4482422 0.9643555
vt 0.5546875 0.8706055
vt 0.4924316 0.8989258
vt 0.5268555 0.8398438
vt 0.442627 0.902832
vt 0.4438477 0.925293
vt 0.3852539 0.9599609
vt 0.4924316 0.8989258
vt 0.3864746 0.9277344
vt 0.322998 0.9624023
vt 0.442627 0.902832
vt 0.329834 0.9331055
vt 0.2380371 0.878418
vt 0.3874512 0.902832
vt 0.479248 0.871582
vt 0.4440918 0.8759766
vt 0.340332 0.8935547
vt 0.3876953 0.8740234
vt 0.4553223 0.7998047
vt 0.276123 0.8442383
vt 0.3391113 0.8574219
vt 0.3830566 0.7978516
vt 0.340332 0.8935547
vt 0.3100586 0.8212891
vt 0.3391113 0.8574219
vt 0.3876953 0.8740234
vt 0.3874512 0.902832
vt 0.4440918 0.8759766
vt 0.479248 0.871582
vn 0 0.9995186 0.0310226
vn -0.2884493 0.957464 0.007724917
vn -0.3036957 0.9523105 0.02955737
vn 0 0.9999938 -0.003540206
vn -0.2506236 0.96677 -0.05043526
vn 0.2884493 0.957464 0.007724919
vn 0.3036956 0.9523105 0.02955738
vn 0.2506236 0.96677 -0.05043526
vn 0 0.9976118 -0.06907117
vn -0.2210245 0.9697202 -0.1038799
vn 0.2210245 0.9697202 -0.1038799
vn 0 0.9943112 -0.1065142
vn 0 -0.9984805 -0.05510679
vn -0.127946 -0.9917642 0.005779466
vn -0.191627 -0.9778904 0.08372243
vn 0 -0.9999723 -0.007434521
vn 0.2560123 -0.9654077 0.04945413
vn 0.1916269 -0.9778904 0.08372238
vn 0.127946 -0.9917642 0.005779467
vn -0.2560122 -0.9654077 0.04945411
vn 0 -0.9977394 0.06720106
vn 0.2263936 -0.9687955 0.1009011
vn -0.2263934 -0.9687955 0.1009011
vn 0 -0.99462 0.1035908
vn -0.3586886 -0.9327233 0.03700938
vn -0.127946 -0.9917642 0.005779466
vn -0.1379902 -0.9797045 0.1453885
vn -0.1372353 -0.9793523 0.1484435
vn -0.2311857 -0.9134055 0.3350277
vn -0.2477911 -0.9064735 0.3419142
vn -0.2587098 -0.9340075 0.2463722
vn -0.2245886 -0.9531112 0.2028277
vn 0 -0.9983193 0.05795183
vn 0 -0.9983193 0.05795183
vn 0.2587098 -0.9340075 0.2463722
vn 0.2245885 -0.9531112 0.2028277
vn 0.2311857 -0.9134055 0.3350277
vn 0.2477911 -0.9064735 0.3419142
vn 0.1379902 -0.9797045 0.1453885
vn 0.1372353 -0.9793523 0.1484435
vn 0.127946 -0.9917642 0.005779467
vn 0.3586886 -0.9327233 0.03700938
vn 0.127946 -0.9917642 0.005779467
vn 0.1916269 -0.9778904 0.08372238
vn 0.5979996 -0.7858594 0.1575487
vn 0.6851134 -0.4450778 0.5766501
vn 0.7032411 -0.5195166 0.4853395
vn 0.4394692 0.104088 0.8922065
vn 0.5299162 -0.06386294 0.845642
vn 0 0.3152193 0.9490188
vn 0 0.3152194 0.9490188
vn -0.4394695 0.1040877 0.8922064
vn -0.5299168 -0.06386417 0.8456415
vn -0.6851137 -0.4450784 0.5766494
vn -0.7032412 -0.5195168 0.485339
vn -0.191627 -0.9778904 0.08372243
vn -0.5979998 -0.7858592 0.1575488
vn -0.127946 -0.9917642 0.005779466
vn -0.990362 -0.05440919 -0.127368
vn -0.9969873 -0.04437153 -0.0636195
vn -0.9969873 -0.04437153 -0.0636195
vn -0.990575 -0.05416515 -0.1258072
vn -0.9848036 0.0315217 -0.1707877
vn -0.9949062 -0.05746235 -0.08282388
vn -0.9984233 -0.03171009 -0.04631818
vn -0.9753624 0.02372968 -0.2193288
vn -0.9393551 -0.2836697 0.1927263
vn -0.9712341 0.01436501 -0.2376933
vn -0.9503809 -0.02322117 -0.3102208
vn -0.9503809 -0.02322117 -0.3102208
vn -0.941354 -0.2794689 0.1890759
vn -0.7805605 -0.5113004 0.3595792
vn -0.7552822 -0.5368279 0.3759847
vn -0.4414011 -0.7075465 0.5518542
vn -0.4297311 -0.7100903 0.557766
vn 0 -0.7554629 0.6551914
vn 0 -0.7554629 0.6551914
vn 0.4297316 -0.7100905 0.5577654
vn 0.4414015 -0.7075467 0.5518535
vn 0.7552824 -0.5368281 0.3759843
vn 0.7805607 -0.5113005 0.3595789
vn 0.9393551 -0.2836699 0.1927262
vn 0.941354 -0.2794691 0.1890758
vn 0.9984233 -0.03171051 -0.04631777
vn 0.9949062 -0.05746241 -0.08282333
vn 0.9848036 0.03152136 -0.1707871
vn 0.9905749 -0.05416496 -0.1258075
vn 0.9753624 0.02372947 -0.2193291
vn 0.990362 -0.054409 -0.1273683
vn 0.9969873 -0.04437147 -0.06362047
vn 0.9969873 -0.04437147 -0.06362047
vn 0.971234 0.0143649 -0.2376936
vn 0.9503807 -0.02322082 -0.3102213
vn 0.9503807 -0.02322082 -0.3102213
vn 0.4692556 0.4125587 0.7807655
vn 0 0.5055569 0.8627932
vn 0.7363592 0.4363885 0.5170494
vn 0.7921124 0.3744287 0.4820385
vn 0.9468459 0.3211636 0.01835057
vn 0.9726397 0.2322994 0.002974253
vn 0.9382389 0.1667905 -0.3031317
vn 0.9473276 0.05848804 -0.3148806
vn 0.6594741 0.009688322 -0.7516649
vn 0.606796 -0.09656455 -0.7889702
vn 0 -0.01527295 -0.9998834
vn 0 -0.1413828 -0.9899549
vn -0.606796 -0.09656455 -0.7889702
vn -0.659474 0.009688319 -0.7516649
vn -0.9473276 0.05848804 -0.3148806
vn 0 0.2882253 -0.9575627
vn 0.5891783 0.3150943 -0.7440327
vn 0 0.6246406 -0.7809123
vn 0.8462695 0.4316313 -0.3122857
vn -0.9382389 0.1667905 -0.3031317
vn -0.9726397 0.2322994 0.002974298
vn -0.5891782 0.3150942 -0.7440326
vn -0.9468459 0.3211636 0.01835058
vn -0.7921124 0.3744287 0.4820385
vn -0.8462695 0.4316313 -0.3122857
vn -0.7363592 0.4363885 0.5170494
vn -0.4692555 0.4125587 0.7807654
vn -0.8299438 0.5572641 0.02549385
vn -0.4235648 0.6267313 -0.6540648
vn -0.5784595 0.7358773 -0.3519503
vn -0.6311684 0.6329579 0.4483199
vn -0.5733414 0.8193063 0.004125657
vn 0 0.9219284 -0.3873603
vn 0 0.6277598 0.778407
vn -0.4142746 0.8335416 0.3654928
vn 0 0.9999878 -0.004927577
vn 0.6311684 0.6329579 0.4483199
vn 0 0.8765864 0.4812447
vn 0.4142746 0.8335416 0.3654928
vn 0.5733414 0.8193063 0.004125639
vn 0.8299438 0.5572641 0.02549385
vn 0.5784595 0.7358773 -0.3519503
vn 0.4235648 0.6267313 -0.6540648
g Helmet_0
f 3/3/3 2/2/2 1/1/1
f 2/2/2 4/4/4 1/1/1
f 2/2/2 5/5/5 4/4/4
f 4/4/4 6/6/6 1/1/1
f 6/6/6 7/7/7 1/1/1
f 8/8/8 6/6/6 4/4/4
f 5/5/5 9/9/9 4/4/4
f 9/9/9 8/8/8 4/4/4
f 5/5/5 10/10/10 9/9/9
f 11/11/11 8/8/8 9/9/9
f 10/10/10 12/12/12 9/9/9
f 12/12/12 11/11/11 9/9/9
f 15/15/15 14/14/14 13/13/13
f 16/16/16 15/15/15 13/13/13
f 17/17/17 15/15/15 16/16/16
f 18/18/18 16/16/16 13/13/13
f 19/19/19 18/18/18 13/13/13
f 18/18/18 20/20/20 16/16/16
f 21/21/21 17/17/17 16/16/16
f 20/20/20 21/21/21 16/16/16
f 22/22/22 17/17/17 21/21/21
f 20/20/20 23/23/23 21/21/21
f 24/24/24 22/22/22 21/21/21
f 23/23/23 24/24/24 21/21/21
f 27/27/27 26/26/26 25/25/25
f 28/28/28 27/27/27 25/25/25
f 29/29/29 27/27/27 28/28/28
f 30/30/30 29/29/29 28/28/28
f 31/31/31 29/29/29 30/30/30
f 32/32/32 31/31/31 30/30/30
f 33/33/33 31/31/31 32/32/32
f 34/34/34 33/33/33 32/32/32
f 35/35/35 33/33/33 34/34/34
f 36/36/36 35/35/35 34/34/34
f 37/37/37 35/35/35 36/36/36
f 38/38/38 37/37/37 36/36/36
f 39/39/39 37/37/37 38/38/38
f 40/40/40 39/39/39 38/38/38
f 41/41/41 39/39/39 40/40/40
f 42/42/42 41/41/41 40/40/40
f 44/44/44 43/43/43 42/42/42
f 45/45/45 44/44/44 42/42/42
f 46/46/46 44/44/44 45/45/45
f 47/47/47 46/46/46 45/45/45
f 48/48/48 46/46/46 47/47/47
f 49/49/49 48/48/48 47/47/47
f 50/50/50 48/48/48 49/49/49
f 51/51/51 50/50/50 49/49/49
f 52/52/52 50/50/50 51/51/51
f 53/53/53 52/52/52 51/51/51
f 54/54/54 52/52/52 53/53/53
f 55/55/55 54/54/54 53/53/53
f 56/56/56 54/54/54 55/55/55
f 57/57/57 56/56/56 55/55/55
f 58/58/58 56/56/56 57/57/57
f 25/25/25 58/58/58 57/57/57
f 61/61/61 60/60/60 59/59/59
f 62/62/62 61/61/61 59/59/59
f 62/62/62 59/59/59 63/63/63
f 64/64/64 62/62/62 63/63/63
f 64/64/64 63/63/63 65/65/65
f 63/63/63 66/66/66 65/65/65
f 67/67/67 64/64/64 65/65/65
f 66/66/66 68/68/68 65/65/65
f 66/66/66 69/69/69 68/68/68
f 69/69/69 70/70/70 68/68/68
f 71/71/71 67/67/67 65/65/65
f 71/71/71 72/72/72 67/67/67
f 72/72/72 73/73/73 67/67/67
f 72/72/72 74/74/74 73/73/73
f 74/74/74 75/75/75 73/73/73
f 74/74/74 76/76/76 75/75/75
f 76/76/76 77/77/77 75/75/75
f 77/77/77 76/76/76 78/78/78
f 76/76/76 79/79/79 78/78/78
f 78/78/78 79/79/79 80/80/80
f 79/79/79 81/81/81 80/80/80
f 80/80/80 81/81/81 82/82/82
f 81/81/81 83/83/83 82/82/82
f 82/82/82 83/83/83 84/84/84
f 85/85/85 82/82/82 84/84/84
f 86/86/86 85/85/85 84/84/84
f 87/87/87 85/85/85 86/86/86
f 88/88/88 86/86/86 84/84/84
f 89/89/89 87/87/87 86/86/86
f 90/90/90 87/87/87 89/89/89
f 91/91/91 90/90/90 89/89/89
f 92/92/92 88/88/88 84/84/84
f 93/93/93 88/88/88 92/92/92
f 94/94/94 93/93/93 92/92/92
f 97/97/97 96/96/96 95/95/95
f 98/98/98 97/97/97 95/95/95
f 99/99/99 97/97/97 98/98/98
f 100/100/100 99/99/99 98/98/98
f 101/101/101 99/99/99 100/100/100
f 102/102/102 101/101/101 100/100/100
f 103/103/103 101/101/101 102/102/102
f 104/104/104 103/103/103 102/102/102
f 105/105/105 103/103/103 104/104/104
f 106/106/106 105/105/105 104/104/104
f 105/105/105 106/106/106 107/107/107
f 108/108/108 105/105/105 107/107/107
f 108/108/108 107/107/107 109/109/109
f 105/105/105 110/110/110 103/103/103
f 110/110/110 105/105/105 108/108/108
f 103/103/103 111/111/111 101/101/101
f 110/110/110 111/111/111 103/103/103
f 110/110/110 112/112/112 111/111/111
f 101/101/101 113/113/113 99/99/99
f 111/111/111 113/113/113 101/101/101
f 114/114/114 108/108/108 109/109/109
f 114/114/114 109/109/109 115/115/115
f 116/116/116 110/110/110 108/108/108
f 112/112/112 110/110/110 116/116/116
f 116/116/116 108/108/108 114/114/114
f 117/117/117 114/114/114 115/115/115
f 117/117/117 115/115/115 118/118/118
f 119/119/119 116/116/116 114/114/114
f 119/119/119 114/114/114 117/117/117
f 120/120/120 117/117/117 118/118/118
f 120/120/120 118/118/118 121/121/121
f 96/96/96 120/120/120 121/121/121
f 122/122/122 117/117/117 120/120/120
f 122/122/122 119/119/119 117/117/117
f 123/123/123 116/116/116 119/119/119
f 123/123/123 112/112/112 116/116/116
f 124/124/124 123/123/123 119/119/119
f 124/124/124 119/119/119 122/122/122
f 112/112/112 123/123/123 124/124/124
f 125/125/125 122/122/122 120/120/120
f 125/125/125 120/120/120 96/96/96
f 126/126/126 124/124/124 122/122/122
f 126/126/126 122/122/122 125/125/125
f 127/127/127 112/112/112 124/124/124
f 127/127/127 124/124/124 126/126/126
f 128/128/128 125/125/125 96/96/96
f 129/129/129 126/126/126 125/125/125
f 129/129/129 125/125/125 128/128/128
f 130/130/130 126/126/126 129/129/129
f 130/130/130 127/127/127 126/126/126
f 131/131/131 128/128/128 96/96/96
f 97/97/97 131/131/131 96/96/96
f 132/132/132 129/129/129 128/128/128
f 132/132/132 130/130/130 129/129/129
f 133/133/133 132/132/132 128/128/128
f 130/130/130 132/132/132 133/133/133
f 131/131/131 133/133/133 128/128/128
f 134/134/134 130/130/130 133/133/133
f 127/127/127 130/130/130 134/134/134
f 134/134/134 133/133/133 131/131/131
f 135/135/135 131/131/131 97/97/97
f 135/135/135 134/134/134 131/131/131
f 99/99/99 135/135/135 97/97/97
f 113/113/113 135/135/135 99/99/99
f 136/136/136 127/127/127 134/134/134
f 136/136/136 134/134/134 135/135/135
f 113/113/113 136/136/136 135/135/135
f 112/112/112 127/127/127 136/136/136
f 137/137/137 136/136/136 113/113/113
f 137/137/137 112/112/112 136/136/136
f 111/111/111 137/137/137 113/113/113
f 112/112/112 137/137/137 111/111/111
