g Magnet
v -0.324832 0.5090874 0.1247457
v -0.3308413 0.608898 0.1247457
v -0.3308413 0.608898 -0.1247457
v -0.324832 0.5090874 -0.1247457
v -0.2893956 0.4155861 0.1247457
v -0.2893956 0.4155861 -0.1247457
v -0.2277424 0.3368643 0.1247457
v -0.2277424 0.3368643 -0.1247457
v -0.1454576 0.2800535 0.1247457
v -0.1454576 0.2800535 -0.1247457
v -0.04999559 0.2503004 0.1247457
v -0.04999561 0.2503005 -0.1247457
v 0.5264936 0.9719972 -0.1133741
v 0.4736854 1.312441 -0.1020025
v 0.2705233 1.312441 -0.1020025
v 0.3006823 0.9606696 -0.1133741
v 0.5687796 0.4567855 0.1247457
v 0.5793019 0.6315532 0.1247457
v 0.5793019 0.6315532 -0.1247457
v 0.5687796 0.4567855 -0.1247457
v 0.5067306 0.293065 0.1247457
v 0.5067306 0.293065 -0.1247457
v 0.3987761 0.1552233 0.1247457
v 0.3987761 0.1552233 -0.1247457
v 0.2546958 0.05574795 0.1247457
v 0.2546958 0.05574794 -0.1247457
v 0.08754209 0.003650436 0.1247457
v 0.08754214 0.003650462 -0.1247457
v -0.324832 0.5090874 0.1247457
v -0.5793019 0.6315532 0.1247457
v -0.3308413 0.608898 0.1247457
v -0.5687796 0.4567855 0.1247457
v -0.2893956 0.4155861 0.1247457
v -0.5067306 0.293065 0.1247457
v -0.2277424 0.3368643 0.1247457
v -0.3987761 0.1552233 0.1247457
v -0.1454576 0.2800535 0.1247457
v -0.2546958 0.05574795 0.1247457
v -0.04999559 0.2503004 0.1247457
v -0.08754214 0.003650474 0.1247457
v 0.04999561 0.2503005 0.1247457
v 0.08754209 0.003650436 0.1247457
v 0.1454576 0.2800535 0.1247457
v 0.2546958 0.05574795 0.1247457
v 0.2277424 0.3368643 0.1247457
v 0.3987761 0.1552233 0.1247457
v 0.2893956 0.4155861 0.1247457
v 0.5067306 0.293065 0.1247457
v 0.324832 0.5090874 0.1247457
v 0.5687796 0.4567855 0.1247457
v 0.3308413 0.608898 0.1247457
v 0.5793019 0.6315532 0.1247457
v 0.324832 0.5090874 -0.1247457
v 0.5793019 0.6315532 -0.1247457
v 0.3308413 0.608898 -0.1247457
v 0.5687796 0.4567855 -0.1247457
v 0.2893956 0.4155861 -0.1247457
v 0.5067306 0.293065 -0.1247457
v 0.2277424 0.3368643 -0.1247457
v 0.3987761 0.1552233 -0.1247457
v 0.1454576 0.2800535 -0.1247457
v 0.2546958 0.05574794 -0.1247457
v 0.04999559 0.2503004 -0.1247457
v 0.08754214 0.003650462 -0.1247457
v -0.04999561 0.2503005 -0.1247457
v -0.08754209 0.003650425 -0.1247457
v -0.1454576 0.2800535 -0.1247457
v -0.2546958 0.05574794 -0.1247457
v -0.2277424 0.3368643 -0.1247457
v -0.3987761 0.1552233 -0.1247457
v -0.2893956 0.4155861 -0.1247457
v -0.5067306 0.293065 -0.1247457
v -0.324832 0.5090874 -0.1247457
v -0.5687796 0.4567855 -0.1247457
v -0.3308413 0.608898 -0.1247457
v -0.5793019 0.6315532 -0.1247457
v -0.5793019 0.6315532 0.1247457
v -0.5687796 0.4567855 -0.1247457
v -0.5793019 0.6315532 -0.1247457
v -0.5687796 0.4567855 0.1247457
v -0.5067306 0.293065 -0.1247457
v -0.5067306 0.293065 0.1247457
v -0.3987761 0.1552233 -0.1247457
v -0.3987761 0.1552233 0.1247457
v -0.2546958 0.05574794 -0.1247457
v -0.2546958 0.05574795 0.1247457
v -0.08754209 0.003650425 -0.1247457
v -0.08754214 0.003650474 0.1247457
v -0.08754214 0.003650474 0.1247457
v 0.08754209 0.003650436 0.1247457
v 0.08754214 0.003650462 -0.1247457
v -0.08754209 0.003650425 -0.1247457
v 0.3308413 0.608898 0.1247457
v 0.324832 0.5090874 -0.1247457
v 0.3308413 0.608898 -0.1247457
v 0.324832 0.5090874 0.1247457
v 0.2893956 0.4155861 -0.1247457
v 0.2893956 0.4155861 0.1247457
v 0.2277424 0.3368643 -0.1247457
v 0.2277424 0.3368643 0.1247457
v 0.1454576 0.2800535 -0.1247457
v 0.1454576 0.2800535 0.1247457
v 0.04999559 0.2503004 -0.1247457
v 0.04999561 0.2503005 0.1247457
v 0.04999561 0.2503005 0.1247457
v -0.04999559 0.2503004 0.1247457
v -0.04999561 0.2503005 -0.1247457
v 0.04999559 0.2503004 -0.1247457
v -0.3006823 0.9606696 -0.1133741
v -0.2705234 1.312441 -0.1020025
v -0.4736854 1.312441 -0.1020025
v -0.5264936 0.9719972 -0.1133741
v -0.2705234 1.312441 0.1020024
v -0.4736854 1.312441 0.1020024
v -0.4736854 1.312441 -0.1020025
v -0.2705234 1.312441 -0.1020025
v 0.4736854 1.312441 0.1020024
v 0.2705233 1.312441 0.1020024
v 0.2705233 1.312441 -0.1020025
v 0.4736854 1.312441 -0.1020025
v -0.3006823 0.9606696 0.113374
v -0.2705234 1.312441 0.1020024
v -0.2705234 1.312441 -0.1020025
v -0.3006823 0.9606696 -0.1133741
v 0.3006823 0.9606696 0.113374
v 0.2705233 1.312441 0.1020024
v 0.4736854 1.312441 0.1020024
v 0.5264936 0.9719972 0.113374
v -0.5264936 0.9719972 -0.1133741
v -0.4736854 1.312441 -0.1020025
v -0.4736854 1.312441 0.1020024
v -0.5264936 0.9719972 0.113374
v 0.3006823 0.9606696 -0.1133741
v 0.2705233 1.312441 -0.1020025
v 0.2705233 1.312441 0.1020024
v 0.3006823 0.9606696 0.113374
v -0.5264936 0.9719972 0.113374
v -0.4736854 1.312441 0.1020024
v -0.2705234 1.312441 0.1020024
v -0.3006823 0.9606696 0.113374
v 0.5264936 0.9719972 0.113374
v 0.4736854 1.312441 0.1020024
v 0.4736854 1.312441 -0.1020025
v 0.5264936 0.9719972 -0.1133741
v -0.5793019 0.6315532 0.1247457
v -0.5264936 0.9719972 0.113374
v -0.3006823 0.9606696 0.113374
v -0.3308413 0.608898 0.1247457
v -0.5793019 0.6315532 -0.1247457
v -0.5264936 0.9719972 -0.1133741
v -0.5264936 0.9719972 0.113374
v -0.5793019 0.6315532 0.1247457
v -0.3308413 0.608898 0.1247457
v -0.3006823 0.9606696 0.113374
v -0.3006823 0.9606696 -0.1133741
v -0.3308413 0.608898 -0.1247457
v -0.3308413 0.608898 -0.1247457
v -0.3006823 0.9606696 -0.1133741
v -0.5264936 0.9719972 -0.1133741
v -0.5793019 0.6315532 -0.1247457
v 0.5793019 0.6315532 0.1247457
v 0.5264936 0.9719972 0.113374
v 0.5264936 0.9719972 -0.1133741
v 0.5793019 0.6315532 -0.1247457
v 0.3308413 0.608898 -0.1247457
v 0.3006823 0.9606696 -0.1133741
v 0.3006823 0.9606696 0.113374
v 0.3308413 0.608898 0.1247457
v 0.3308413 0.608898 0.1247457
v 0.3006823 0.9606696 0.113374
v 0.5264936 0.9719972 0.113374
v 0.5793019 0.6315532 0.1247457
v 0.5793019 0.6315532 -0.1247457
v 0.5264936 0.9719972 -0.1133741
v 0.3006823 0.9606696 -0.1133741
v 0.3308413 0.608898 -0.1247457
vt 0.6948242 0.447998
vt 0.6948242 0.4560547
vt 0.7148438 0.4560547
vt 0.7148438 0.447998
vt 0.6948242 0.4406738
vt 0.7148438 0.4406738
vt 0.6948242 0.4343262
vt 0.7148438 0.4343262
vt 0.6948242 0.4299316
vt 0.7148438 0.4299316
vt 0.6948242 0.4274902
vt 0.7148438 0.4274902
vt 0.6000977 0.9467773
vt 0.6005859 0.972168
vt 0.6020508 0.972168
vt 0.6020508 0.9462891
vt 0.9174805 0.4404297
vt 0.9174805 0.4543457
vt 0.9370117 0.4543457
vt 0.9370117 0.4404297
vt 0.9174805 0.4274902
vt 0.9370117 0.4274902
vt 0.9174805 0.4165039
vt 0.9370117 0.4165039
vt 0.9174805 0.4084473
vt 0.9370117 0.4084473
vt 0.9174805 0.4042969
vt 0.9370117 0.4042969
vt 0.815918 0.449707
vt 0.8139648 0.4594727
vt 0.815918 0.4577637
vt 0.8139648 0.4455566
vt 0.8164063 0.4423828
vt 0.8144531 0.4326172
vt 0.8168945 0.4360352
vt 0.8154297 0.4216309
vt 0.8173828 0.4316406
vt 0.8164063 0.4138184
vt 0.8183594 0.4291992
vt 0.8178711 0.409668
vt 0.8188477 0.4291992
vt 0.8193359 0.409668
vt 0.8198242 0.4316406
vt 0.8208008 0.4138184
vt 0.8203125 0.4360352
vt 0.8217773 0.4216309
vt 0.8208008 0.4423828
vt 0.8227539 0.4326172
vt 0.8212891 0.449707
vt 0.8232422 0.4455566
vt 0.8212891 0.4577637
vt 0.8232422 0.4594727
vt 0.8071289 0.449707
vt 0.8046875 0.4594727
vt 0.8066406 0.4577637
vt 0.8051758 0.4455566
vt 0.8071289 0.4423828
vt 0.8056641 0.4326172
vt 0.8076172 0.4360352
vt 0.8061523 0.4216309
vt 0.8081055 0.4316406
vt 0.8076172 0.4138184
vt 0.809082 0.4291992
vt 0.8085938 0.409668
vt 0.8100586 0.4291992
vt 0.8100586 0.409668
vt 0.8105469 0.4316406
vt 0.8115234 0.4138184
vt 0.8110352 0.4360352
vt 0.8125 0.4216309
vt 0.8115234 0.4423828
vt 0.8134766 0.4326172
vt 0.8120117 0.449707
vt 0.8139648 0.4455566
vt 0.8120117 0.4577637
vt 0.8139648 0.4594727
vt 0.9570313 0.4543457
vt 0.9370117 0.4404297
vt 0.9370117 0.4543457
vt 0.9570313 0.4404297
vt 0.9370117 0.4274902
vt 0.9570313 0.4274902
vt 0.9370117 0.4165039
vt 0.9570313 0.4165039
vt 0.9370117 0.4084473
vt 0.9570313 0.4084473
vt 0.9370117 0.4042969
vt 0.9570313 0.4042969
vt 0.918457 0.4543457
vt 0.9174805 0.4543457
vt 0.9174805 0.4743652
vt 0.918457 0.4743652
vt 0.7148438 0.4274902
vt 0.6948242 0.4194336
vt 0.6948242 0.4274902
vt 0.7148438 0.4194336
vt 0.6948242 0.4121094
vt 0.7148438 0.4121094
vt 0.6948242 0.4057617
vt 0.7148438 0.4057617
vt 0.6948242 0.401123
vt 0.7148438 0.401123
vt 0.6948242 0.3989258
vt 0.7148438 0.3989258
vt 0.6606445 0.4489746
vt 0.659668 0.4489746
vt 0.659668 0.46875
vt 0.6606445 0.46875
vt 0.5981445 0.9462891
vt 0.5981445 0.9199219
vt 0.5966797 0.9199219
vt 0.5966797 0.9453125
vt 0.5507813 0.8935547
vt 0.5493164 0.8935547
vt 0.5493164 0.909668
vt 0.5507813 0.909668
vt 0.5493164 0.8935547
vt 0.5473633 0.8935547
vt 0.5473633 0.909668
vt 0.5493164 0.909668
vt 0.5566406 0.9462891
vt 0.5561523 0.9199219
vt 0.5410156 0.9199219
vt 0.5400391 0.9462891
vt 0.6000977 0.9462891
vt 0.6000977 0.9199219
vt 0.5986328 0.9199219
vt 0.5986328 0.9453125
vt 0.5751953 0.9453125
vt 0.5742188 0.9199219
vt 0.5595703 0.9199219
vt 0.5585938 0.9453125
vt 0.5385742 0.9462891
vt 0.5375977 0.9199219
vt 0.5224609 0.9199219
vt 0.5214844 0.9462891
vt 0.5947266 0.9467773
vt 0.5947266 0.972168
vt 0.5961914 0.972168
vt 0.5961914 0.9462891
vt 0.59375 0.9453125
vt 0.5927734 0.9199219
vt 0.5776367 0.9199219
vt 0.5771484 0.9453125
vt 0.8105469 0.4370117
vt 0.8105469 0.4562988
vt 0.8120117 0.4558105
vt 0.8120117 0.435791
vt 0.9682617 0.4692383
vt 0.9677734 0.4499512
vt 0.9545898 0.4499512
vt 0.9541016 0.4692383
vt 0.6918945 0.4650879
vt 0.6914063 0.4450684
vt 0.6782227 0.4450684
vt 0.6777344 0.4650879
vt 0.8134766 0.4758301
vt 0.8134766 0.4558105
vt 0.8120117 0.4550781
vt 0.8120117 0.4743652
vt 0.9824219 0.4692383
vt 0.9819336 0.4499512
vt 0.96875 0.4499512
vt 0.9682617 0.4692383
vt 0.6777344 0.4650879
vt 0.6772461 0.4450684
vt 0.6640625 0.4450684
vt 0.6635742 0.4650879
vt 0.8149414 0.4758301
vt 0.8149414 0.4558105
vt 0.8134766 0.4550781
vt 0.8134766 0.4743652
vt 0.8149414 0.4370117
vt 0.8149414 0.4562988
vt 0.815918 0.4558105
vt 0.815918 0.435791
vn 0.9775391 0.2095947 0
vn 1 -0.01194 0
vn 1 -0.01194 0
vn 0.9775391 0.2095947 0
vn 0.8710938 0.4909668 0
vn 0.8710938 0.4909668 0
vn 0.6855469 0.7280273 0
vn 0.6855469 0.7280273 0
vn 0.4377441 0.8989258 0
vn 0.4377441 0.8989258 0
vn 0.1505127 0.9887695 0
vn 0.1505127 0.9887695 0
vn -0.001646996 0.03265381 -0.9995117
vn -0.0008645058 0.03274536 -0.9995117
vn -0.0008645058 0.03274536 -0.9995117
vn -0.001582146 0.03265381 -0.9995117
vn 0.9775391 -0.2095947 0
vn 0.9990234 0.04571533 0
vn 0.9990234 0.04571533 0
vn 0.9775391 -0.2095947 0
vn 0.8710938 -0.4909668 0
vn 0.8710938 -0.4909668 0
vn 0.6855469 -0.7280273 0
vn 0.6855469 -0.7280273 0
vn 0.4377441 -0.8989258 0
vn 0.4377441 -0.8989258 0
vn 0.1505127 -0.9887695 0
vn 0.1505127 -0.9887695 0
vn 0 0 1
vn 0.00120163 0.01676941 1
vn 0.001111031 0.01550293 1
vn 0 0 1
vn 0 0 1
vn 0 0 1
vn 0 0 1
vn 0 0 1
vn 0 0 1
vn 0 0 1
vn 0 0 1
vn 0 0 1
vn 0 0 1
vn 0 0 1
vn 0 0 1
vn 0 0 1
vn 0 0 1
vn 0 0 1
vn 0 0 1
vn 0 0 1
vn 0 0 1
vn 0 0 1
vn -0.001111031 0.01550293 1
vn -0.00120163 0.01676941 1
vn 0 0 -1
vn -0.00120163 0.01676941 -1
vn -0.001111031 0.01550293 -1
vn 0 0 -1
vn 0 0 -1
vn 0 0 -1
vn 0 0 -1
vn 0 0 -1
vn 0 0 -1
vn 0 0 -1
vn 0 0 -1
vn 0 0 -1
vn 0 0 -1
vn 0 0 -1
vn 0 0 -1
vn 0 0 -1
vn 0 0 -1
vn 0 0 -1
vn 0 0 -1
vn 0 0 -1
vn 0 0 -1
vn 0 0 -1
vn 0.001111031 0.01550293 -1
vn 0.00120163 0.01676941 -1
vn -0.9990234 0.04571533 0
vn -0.9775391 -0.2095947 0
vn -0.9990234 0.04571533 0
vn -0.9775391 -0.2095947 0
vn -0.8710938 -0.4909668 0
vn -0.8710938 -0.4909668 0
vn -0.6855469 -0.7280273 0
vn -0.6855469 -0.7280273 0
vn -0.4377441 -0.8989258 0
vn -0.4377441 -0.8989258 0
vn -0.1505127 -0.9887695 0
vn -0.1505127 -0.9887695 0
vn -0.1505127 -0.9887695 0
vn 0.1505127 -0.9887695 0
vn 0.1505127 -0.9887695 0
vn -0.1505127 -0.9887695 0
vn -1 -0.01194 0
vn -0.9775391 0.2095947 0
vn -1 -0.01194 0
vn -0.9775391 0.2095947 0
vn -0.8710938 0.4909668 0
vn -0.8710938 0.4909668 0
vn -0.6855469 0.7280273 0
vn -0.6855469 0.7280273 0
vn -0.4377441 0.8989258 0
vn -0.4377441 0.8989258 0
vn -0.1505127 0.9887695 0
vn -0.1505127 0.9887695 0
vn -0.1505127 0.9887695 0
vn 0.1505127 0.9887695 0
vn 0.1505127 0.9887695 0
vn -0.1505127 0.9887695 0
vn 0.001582146 0.03265381 -0.9995117
vn 0.0008645058 0.03274536 -0.9995117
vn 0.0008645058 0.03274536 -0.9995117
vn 0.001646996 0.03265381 -0.9995117
vn 0 1 0
vn 0 1 0
vn 0 1 0
vn 0 1 0
vn 0 1 0
vn 0 1 0
vn 0 1 0
vn 0 1 0
vn 0.996582 -0.08544922 0
vn 0.996582 -0.08544922 0
vn 0.996582 -0.08544922 0
vn 0.996582 -0.08544922 0
vn -0.001582146 0.03265381 0.9995117
vn -0.0008645058 0.03274536 0.9995117
vn -0.0008645058 0.03274536 0.9995117
vn -0.001646996 0.03265381 0.9995117
vn -0.9882813 0.1533203 0
vn -0.9882813 0.1533203 0
vn -0.9882813 0.1533203 0
vn -0.9882813 0.1533203 0
vn -0.996582 -0.08544922 0
vn -0.996582 -0.08544922 0
vn -0.996582 -0.08544922 0
vn -0.996582 -0.08544922 0
vn 0.001646996 0.03265381 0.9995117
vn 0.0008645058 0.03274536 0.9995117
vn 0.0008645058 0.03274536 0.9995117
vn 0.001582146 0.03265381 0.9995117
vn 0.9882813 0.1533203 0
vn 0.9882813 0.1533203 0
vn 0.9882813 0.1533203 0
vn 0.9882813 0.1533203 0
vn 0.00120163 0.01676941 1
vn 0.001646996 0.03265381 0.9995117
vn 0.001582146 0.03265381 0.9995117
vn 0.001111031 0.01550293 1
vn -0.9990234 0.04571533 0
vn -0.9882813 0.1533203 0
vn -0.9882813 0.1533203 0
vn -0.9990234 0.04571533 0
vn 1 -0.01194 0
vn 0.996582 -0.08544922 0
vn 0.996582 -0.08544922 0
vn 1 -0.01194 0
vn 0.001111031 0.01550293 -1
vn 0.001582146 0.03265381 -0.9995117
vn 0.001646996 0.03265381 -0.9995117
vn 0.00120163 0.01676941 -1
vn 0.9990234 0.04571533 0
vn 0.9882813 0.1533203 0
vn 0.9882813 0.1533203 0
vn 0.9990234 0.04571533 0
vn -1 -0.01194 0
vn -0.996582 -0.08544922 0
vn -0.996582 -0.08544922 0
vn -1 -0.01194 0
vn -0.001111031 0.01550293 1
vn -0.001582146 0.03265381 0.9995117
vn -0.001646996 0.03265381 0.9995117
vn -0.00120163 0.01676941 1
vn -0.00120163 0.01676941 -1
vn -0.001646996 0.03265381 -0.9995117
vn -0.001582146 0.03265381 -0.9995117
vn -0.001111031 0.01550293 -1
g Magnet_0
f 3/3/3 2/2/2 1/1/1
f 4/4/4 3/3/3 1/1/1
f 4/4/4 1/1/1 5/5/5
f 6/6/6 4/4/4 5/5/5
f 6/6/6 5/5/5 7/7/7
f 8/8/8 6/6/6 7/7/7
f 8/8/8 7/7/7 9/9/9
f 10/10/10 8/8/8 9/9/9
f 10/10/10 9/9/9 11/11/11
f 12/12/12 10/10/10 11/11/11
f 15/15/15 14/14/14 13/13/13
f 16/16/16 15/15/15 13/13/13
f 19/19/19 18/18/18 17/17/17
f 20/20/20 19/19/19 17/17/17
f 20/20/20 17/17/17 21/21/21
f 22/22/22 20/20/20 21/21/21
f 22/22/22 21/21/21 23/23/23
f 24/24/24 22/22/22 23/23/23
f 24/24/24 23/23/23 25/25/25
f 26/26/26 24/24/24 25/25/25
f 26/26/26 25/25/25 27/27/27
f 28/28/28 26/26/26 27/27/27
f 31/31/31 30/30/30 29/29/29
f 30/30/30 32/32/32 29/29/29
f 29/29/29 32/32/32 33/33/33
f 32/32/32 34/34/34 33/33/33
f 33/33/33 34/34/34 35/35/35
f 34/34/34 36/36/36 35/35/35
f 35/35/35 36/36/36 37/37/37
f 36/36/36 38/38/38 37/37/37
f 37/37/37 38/38/38 39/39/39
f 38/38/38 40/40/40 39/39/39
f 39/39/39 40/40/40 41/41/41
f 40/40/40 42/42/42 41/41/41
f 41/41/41 42/42/42 43/43/43
f 42/42/42 44/44/44 43/43/43
f 43/43/43 44/44/44 45/45/45
f 44/44/44 46/46/46 45/45/45
f 45/45/45 46/46/46 47/47/47
f 46/46/46 48/48/48 47/47/47
f 47/47/47 48/48/48 49/49/49
f 48/48/48 50/50/50 49/49/49
f 49/49/49 50/50/50 51/51/51
f 50/50/50 52/52/52 51/51/51
f 55/55/55 54/54/54 53/53/53
f 54/54/54 56/56/56 53/53/53
f 53/53/53 56/56/56 57/57/57
f 56/56/56 58/58/58 57/57/57
f 57/57/57 58/58/58 59/59/59
f 58/58/58 60/60/60 59/59/59
f 59/59/59 60/60/60 61/61/61
f 60/60/60 62/62/62 61/61/61
f 61/61/61 62/62/62 63/63/63
f 62/62/62 64/64/64 63/63/63
f 63/63/63 64/64/64 65/65/65
f 64/64/64 66/66/66 65/65/65
f 65/65/65 66/66/66 67/67/67
f 66/66/66 68/68/68 67/67/67
f 67/67/67 68/68/68 69/69/69
f 68/68/68 70/70/70 69/69/69
f 69/69/69 70/70/70 71/71/71
f 70/70/70 72/72/72 71/71/71
f 71/71/71 72/72/72 73/73/73
f 72/72/72 74/74/74 73/73/73
f 73/73/73 74/74/74 75/75/75
f 74/74/74 76/76/76 75/75/75
f 79/79/79 78/78/78 77/77/77
f 78/78/78 80/80/80 77/77/77
f 78/78/78 81/81/81 80/80/80
f 81/81/81 82/82/82 80/80/80
f 81/81/81 83/83/83 82/82/82
f 83/83/83 84/84/84 82/82/82
f 83/83/83 85/85/85 84/84/84
f 85/85/85 86/86/86 84/84/84
f 85/85/85 87/87/87 86/86/86
f 87/87/87 88/88/88 86/86/86
f 91/91/91 90/90/90 89/89/89
f 92/92/92 91/91/91 89/89/89
f 95/95/95 94/94/94 93/93/93
f 94/94/94 96/96/96 93/93/93
f 94/94/94 97/97/97 96/96/96
f 97/97/97 98/98/98 96/96/96
f 97/97/97 99/99/99 98/98/98
f 99/99/99 100/100/100 98/98/98
f 99/99/99 101/101/101 100/100/100
f 101/101/101 102/102/102 100/100/100
f 101/101/101 103/103/103 102/102/102
f 103/103/103 104/104/104 102/102/102
f 107/107/107 106/106/106 105/105/105
f 108/108/108 107/107/107 105/105/105
f 111/111/111 110/110/110 109/109/109
f 112/112/112 111/111/111 109/109/109
f 115/115/115 114/114/114 113/113/113
f 116/116/116 115/115/115 113/113/113
f 119/119/119 118/118/118 117/117/117
f 120/120/120 119/119/119 117/117/117
f 123/123/123 122/122/122 121/121/121
f 124/124/124 123/123/123 121/121/121
f 127/127/127 126/126/126 125/125/125
f 128/128/128 127/127/127 125/125/125
f 131/131/131 130/130/130 129/129/129
f 132/132/132 131/131/131 129/129/129
f 135/135/135 134/134/134 133/133/133
f 136/136/136 135/135/135 133/133/133
f 139/139/139 138/138/138 137/137/137
f 140/140/140 139/139/139 137/137/137
f 143/143/143 142/142/142 141/141/141
f 144/144/144 143/143/143 141/141/141
f 147/147/147 146/146/146 145/145/145
f 148/148/148 147/147/147 145/145/145
f 151/151/151 150/150/150 149/149/149
f 152/152/152 151/151/151 149/149/149
f 155/155/155 154/154/154 153/153/153
f 156/156/156 155/155/155 153/153/153
f 159/159/159 158/158/158 157/157/157
f 160/160/160 159/159/159 157/157/157
f 163/163/163 162/162/162 161/161/161
f 164/164/164 163/163/163 161/161/161
f 167/167/167 166/166/166 165/165/165
f 168/168/168 167/167/167 165/165/165
f 171/171/171 170/170/170 169/169/169
f 172/172/172 171/171/171 169/169/169
f 175/175/175 174/174/174 173/173/173
f 176/176/176 175/175/175 173/173/173
