g Wheel 
v -0.0564541 0.001040101 -0.218066
v 0.05519845 0.001040101 -0.2180662
v 0.05519844 0.1012677 -0.1981296
v -0.05645411 0.1012677 -0.1981296
v 0.05519843 0.1862366 -0.1413552
v -0.05645412 0.1862366 -0.1413552
v 0.05519844 0.2430108 -0.05638647
v -0.05645411 0.2430109 -0.05638647
v 0.05519844 0.2629474 0.04384124
v -0.0564541 0.2629475 0.04384118
v 0.05519842 0.2430109 0.1440688
v -0.0564541 0.2430109 0.1440689
v 0.05519847 0.1862366 0.2290377
v -0.05645408 0.1862366 0.2290377
v 0.05519845 0.1012678 0.285812
v -0.05645408 0.1012678 0.2858121
v 0.05519849 0.001040101 0.3057486
v -0.05645407 0.001040101 0.3057488
v 0.05519848 -0.09918737 0.2858122
v -0.05645406 -0.09918745 0.2858122
v -0.05645408 -0.09918754 -0.1981296
v 0.05519846 -0.09918757 -0.1981297
v 0.05519845 0.001040101 -0.2180662
v -0.0564541 0.001040101 -0.218066
v 0.05519845 0.1178355 0.1606367
v 0.05519847 0.1862366 0.2290377
v 0.05519842 0.2430109 0.1440688
v 0.05519845 0.0642494 0.1964417
v 0.05519842 0.1536406 0.1070505
v 0.05519845 0.1012678 0.285812
v 0.05519844 0.2629474 0.04384124
v 0.05519846 0.001040071 0.2090147
v 0.05519844 0.1662137 0.04384124
v 0.05519849 0.001040101 0.3057486
v 0.05519844 0.2430108 -0.05638647
v 0.05519847 -0.06216906 0.1964417
v 0.05519845 0.1536405 -0.01936793
v 0.05519848 -0.09918737 0.2858122
v 0.05519843 0.1862366 -0.1413552
v 0.05519848 -0.1157552 0.1606367
v 0.05519844 0.1178354 -0.072954
v 0.05519848 -0.1841563 0.2290378
v 0.05519844 0.1012677 -0.1981296
v 0.05519846 -0.1515602 0.1070503
v 0.05519844 0.06424925 -0.1087592
v 0.05519847 -0.2409306 0.1440688
v 0.05519845 0.001040101 -0.2180662
v 0.05519848 -0.1641334 0.0438413
v 0.05519844 0.001040101 -0.1213323
v 0.05519848 -0.2608672 0.04384136
v 0.05519846 -0.09918757 -0.1981297
v 0.05519846 -0.1515603 -0.01936799
v 0.05519846 -0.0621691 -0.1087593
v 0.05519847 -0.2409308 -0.05638635
v 0.05519848 -0.1841564 -0.1413553
v 0.05519848 -0.1157553 -0.07295424
v -0.0564541 0.1536405 0.1070505
v -0.0564541 0.2430109 0.1440689
v -0.05645408 0.1862366 0.2290377
v -0.05645409 0.1178355 0.1606367
v -0.0564541 0.1662136 0.04384118
v -0.05645408 0.1012678 0.2858121
v -0.0564541 0.2629475 0.04384118
v -0.05645409 0.06424934 0.1964418
v -0.0564541 0.1536406 -0.01936799
v -0.05645407 0.001040101 0.3057488
v -0.05645411 0.2430109 -0.05638647
v -0.05645408 0.001040131 0.2090148
v -0.05645411 0.1178355 -0.07295412
v -0.05645406 -0.09918745 0.2858122
v -0.05645412 0.1862366 -0.1413552
v -0.05645408 -0.06216893 0.1964418
v -0.05645412 0.06424937 -0.1087592
v -0.05645408 -0.1841562 0.2290378
v -0.05645411 0.1012677 -0.1981296
v -0.05645407 -0.1157552 0.1606367
v -0.05645408 0.001040012 -0.1213322
v -0.05645407 -0.2409307 0.1440689
v -0.0564541 0.001040101 -0.218066
v -0.05645408 -0.1515603 0.1070505
v -0.05645408 -0.0621691 -0.1087592
v -0.05645406 -0.2608673 0.0438413
v -0.05645408 -0.09918754 -0.1981296
v -0.05645409 -0.1641334 0.04384118
v -0.05645409 -0.1157552 -0.07295412
v -0.05645409 -0.2409307 -0.05638629
v -0.0564541 -0.1841562 -0.1413552
v -0.05645407 -0.1515604 -0.01936787
vt 0.530636 0.8139107
vt 0.530636 0.8347329
vt 0.5496911 0.8347329
vt 0.5496911 0.8139107
vt 0.5687531 0.834733
vt 0.5687531 0.8139108
vt 0.5878083 0.834733
vt 0.5878083 0.8139108
vt 0.6068701 0.834733
vt 0.6068701 0.8139108
vt 0.6259319 0.834733
vt 0.6259319 0.8139108
vt 0.644987 0.8347331
vt 0.644987 0.8139108
vt 0.664049 0.8347331
vt 0.664049 0.8139108
vt 0.6831043 0.834733
vt 0.6831043 0.8139107
vt 0.7021659 0.834733
vt 0.7021659 0.8139107
vt 0.8165177 0.8139107
vt 0.8165177 0.8347329
vt 0.8355796 0.8347329
vt 0.8355796 0.8139107
vt 0.8590875 0.5323041
vt 0.8988469 0.5588781
vt 0.9181875 0.5121953
vt 0.8365529 0.5548297
vt 0.8712834 0.5028653
vt 0.8631099 0.5946059
vt 0.9181876 0.4616621
vt 0.8071112 0.5670224
vt 0.8712811 0.4710029
vt 0.8164358 0.6139348
vt 0.8988582 0.4149882
vt 0.7752483 0.5670245
vt 0.8590885 0.4415611
vt 0.765902 0.6139347
vt 0.8631306 0.3792505
vt 0.7458094 0.5548284
vt 0.8365567 0.4190108
vt 0.7192199 0.5945947
vt 0.8164486 0.3599109
vt 0.7232613 0.5322846
vt 0.807118 0.406814
vt 0.683492 0.558857
vt 0.7659144 0.3599107
vt 0.7110756 0.5028581
vt 0.775255 0.4068163
vt 0.6641632 0.5121834
vt 0.7192407 0.3792395
vt 0.7110825 0.4709732
vt 0.7458133 0.4190091
vt 0.6641629 0.4616503
vt 0.6835029 0.4149672
vt 0.7232786 0.4415347
vt 0.8071112 0.5670224
vt 0.8164358 0.6139348
vt 0.8631099 0.5946059
vt 0.8365529 0.5548297
vt 0.7752483 0.5670245
vt 0.8988469 0.5588781
vt 0.765902 0.6139347
vt 0.8590875 0.5323041
vt 0.7458094 0.5548284
vt 0.9181875 0.5121953
vt 0.7192199 0.5945947
vt 0.8712834 0.5028653
vt 0.7232613 0.5322846
vt 0.9181876 0.4616621
vt 0.683492 0.558857
vt 0.8712811 0.4710029
vt 0.7110756 0.5028581
vt 0.8988582 0.4149882
vt 0.6641632 0.5121834
vt 0.8590885 0.4415611
vt 0.7110825 0.4709732
vt 0.8631306 0.3792505
vt 0.6641629 0.4616503
vt 0.8365567 0.4190108
vt 0.7232786 0.4415347
vt 0.8164486 0.3599109
vt 0.6835029 0.4149672
vt 0.807118 0.406814
vt 0.7458133 0.4190091
vt 0.7659144 0.3599107
vt 0.7192407 0.3792395
vt 0.775255 0.4068163
vn 0 0 -1
vn 0 0 -1
vn 0 0.3826835 -0.9238794
vn 0 0.3826836 -0.9238794
vn 0 0.7071068 -0.7071067
vn 0 0.7071068 -0.7071068
vn 0 0.9238794 -0.3826838
vn 0 0.9238794 -0.3826838
vn 0 1 0
vn 0 1 0
vn 0 0.9238795 0.3826833
vn 0 0.9238795 0.3826834
vn 0 0.7071066 0.7071069
vn 0 0.7071066 0.7071068
vn 0 0.3826841 0.9238793
vn 0 0.382684 0.9238793
vn 0 0 1
vn 0 0 1
vn 0 -0.1950905 0.9807853
vn 0 -0.1950905 0.9807853
vn 0 -0.1950899 -0.9807854
vn 0 -0.1950899 -0.9807854
vn 0 0 -1
vn 0 0 -1
vn 1 0 0
vn 1 0 0
vn 1 0 0
vn 1 0 0
vn 1 0 0
vn 1 0 0
vn 1 0 0
vn 1 0 0
vn 1 0 0
vn 1 0 0
vn 1 0 0
vn 1 0 0
vn 1 0 0
vn 1 0 0
vn 1 0 0
vn 1 0 0
vn 1 0 0
vn 1 0 0
vn 1 0 0
vn 1 0 0
vn 1 0 0
vn 1 0 0
vn 1 0 0
vn 1 0 0
vn 1 0 0
vn 1 0 0
vn 1 0 0
vn 1 0 0
vn 1 0 0
vn 1 0 0
vn 1 0 0
vn 1 0 0
vn -1 0 0
vn -1 0 0
vn -1 0 0
vn -1 0 0
vn -1 0 0
vn -1 0 0
vn -1 0 0
vn -1 0 0
vn -1 0 0
vn -1 0 0
vn -1 0 0
vn -1 0 0
vn -1 0 0
vn -1 0 0
vn -1 0 0
vn -1 0 0
vn -1 0 0
vn -1 0 0
vn -1 0 0
vn -1 0 0
vn -1 0 0
vn -1 0 0
vn -1 0 0
vn -1 0 0
vn -1 0 0
vn -1 0 0
vn -1 0 0
vn -1 0 0
vn -1 0 0
vn -1 0 0
vn -1 0 0
vn -1 0 0
g Wheel _0
f 3/3/3 2/2/2 1/1/1
f 4/4/4 3/3/3 1/1/1
f 5/5/5 3/3/3 4/4/4
f 6/6/6 5/5/5 4/4/4
f 7/7/7 5/5/5 6/6/6
f 8/8/8 7/7/7 6/6/6
f 9/9/9 7/7/7 8/8/8
f 10/10/10 9/9/9 8/8/8
f 11/11/11 9/9/9 10/10/10
f 12/12/12 11/11/11 10/10/10
f 13/13/13 11/11/11 12/12/12
f 14/14/14 13/13/13 12/12/12
f 15/15/15 13/13/13 14/14/14
f 16/16/16 15/15/15 14/14/14
f 17/17/17 15/15/15 16/16/16
f 18/18/18 17/17/17 16/16/16
f 19/19/19 17/17/17 18/18/18
f 20/20/20 19/19/19 18/18/18
f 23/23/23 22/22/22 21/21/21
f 24/24/24 23/23/23 21/21/21
f 27/27/27 26/26/26 25/25/25
f 25/25/25 26/26/26 28/28/28
f 29/29/29 27/27/27 25/25/25
f 26/26/26 30/30/30 28/28/28
f 31/31/31 27/27/27 29/29/29
f 28/28/28 30/30/30 32/32/32
f 33/33/33 31/31/31 29/29/29
f 30/30/30 34/34/34 32/32/32
f 35/35/35 31/31/31 33/33/33
f 32/32/32 34/34/34 36/36/36
f 37/37/37 35/35/35 33/33/33
f 34/34/34 38/38/38 36/36/36
f 39/39/39 35/35/35 37/37/37
f 36/36/36 38/38/38 40/40/40
f 41/41/41 39/39/39 37/37/37
f 38/38/38 42/42/42 40/40/40
f 43/43/43 39/39/39 41/41/41
f 40/40/40 42/42/42 44/44/44
f 45/45/45 43/43/43 41/41/41
f 42/42/42 46/46/46 44/44/44
f 47/47/47 43/43/43 45/45/45
f 44/44/44 46/46/46 48/48/48
f 49/49/49 47/47/47 45/45/45
f 46/46/46 50/50/50 48/48/48
f 51/51/51 47/47/47 49/49/49
f 48/48/48 50/50/50 52/52/52
f 53/53/53 51/51/51 49/49/49
f 50/50/50 54/54/54 52/52/52
f 55/55/55 51/51/51 53/53/53
f 52/52/52 54/54/54 56/56/56
f 56/56/56 55/55/55 53/53/53
f 54/54/54 55/55/55 56/56/56
f 59/59/59 58/58/58 57/57/57
f 60/60/60 59/59/59 57/57/57
f 57/57/57 58/58/58 61/61/61
f 62/62/62 59/59/59 60/60/60
f 58/58/58 63/63/63 61/61/61
f 64/64/64 62/62/62 60/60/60
f 61/61/61 63/63/63 65/65/65
f 66/66/66 62/62/62 64/64/64
f 63/63/63 67/67/67 65/65/65
f 68/68/68 66/66/66 64/64/64
f 65/65/65 67/67/67 69/69/69
f 70/70/70 66/66/66 68/68/68
f 67/67/67 71/71/71 69/69/69
f 72/72/72 70/70/70 68/68/68
f 69/69/69 71/71/71 73/73/73
f 74/74/74 70/70/70 72/72/72
f 71/71/71 75/75/75 73/73/73
f 76/76/76 74/74/74 72/72/72
f 73/73/73 75/75/75 77/77/77
f 78/78/78 74/74/74 76/76/76
f 75/75/75 79/79/79 77/77/77
f 80/80/80 78/78/78 76/76/76
f 77/77/77 79/79/79 81/81/81
f 82/82/82 78/78/78 80/80/80
f 79/79/79 83/83/83 81/81/81
f 84/84/84 82/82/82 80/80/80
f 81/81/81 83/83/83 85/85/85
f 86/86/86 82/82/82 84/84/84
f 83/83/83 87/87/87 85/85/85
f 88/88/88 86/86/86 84/84/84
f 85/85/85 87/87/87 88/88/88
f 87/87/87 86/86/86 88/88/88
